<svg width="27" height="28" viewBox="0 0 27 28" fill="none" xmlns="http://www.w3.org/2000/svg">
<path d="M13.4176 12.792H13.5426V12.667V8.96747L18.6063 14.0003L13.5426 19.0332V15.3337V15.2087H13.4176H8.17652V12.792H13.4176ZM13.4176 0.791992C20.7544 0.791992 26.7077 6.71008 26.7077 14.0003C26.7077 21.2906 20.7544 27.2087 13.4176 27.2087C6.08074 27.2087 0.127441 21.2906 0.127441 14.0003C0.127441 6.71008 6.08074 0.791992 13.4176 0.791992ZM13.4176 24.792C19.4154 24.792 24.2747 19.9634 24.2747 14.0003C24.2747 8.03724 19.4154 3.20866 13.4176 3.20866C7.41977 3.20866 2.56047 8.03724 2.56047 14.0003C2.56047 19.9634 7.41977 24.792 13.4176 24.792Z" fill="#222220" stroke="#F7F7F7" stroke-width="0.25"/>
</svg>
