<svg width="28" height="28" viewBox="0 0 28 28" fill="none" xmlns="http://www.w3.org/2000/svg">
<path d="M14.098 15.208H13.973V15.333V19.0325L8.90932 13.9997L13.973 8.96682V12.6663V12.7913H14.098H19.3391V15.208H14.098ZM14.098 27.208C6.76121 27.208 0.807915 21.2899 0.807915 13.9997C0.807915 6.70943 6.76121 0.79134 14.098 0.79134C21.4349 0.79134 27.3882 6.70943 27.3882 13.9997C27.3882 21.2899 21.4349 27.208 14.098 27.208ZM14.098 3.20801C8.10025 3.20801 3.24094 8.03658 3.24094 13.9997C3.24094 19.9628 8.10025 24.7913 14.098 24.7913C20.0959 24.7913 24.9552 19.9628 24.9552 13.9997C24.9552 8.03658 20.0959 3.20801 14.098 3.20801Z" fill="#222220" stroke="#F7F7F7" stroke-width="0.25"/>
</svg>
