<svg width="64" height="64" viewBox="0 0 64 64" fill="none" xmlns="http://www.w3.org/2000/svg">
<path d="M18.6406 17.0666C16.9437 18.6941 15.3419 20.4178 13.843 22.2293C10.3775 21.2767 6.79883 20.7983 3.20479 20.8071H5.53131e-05V14.4023H3.19531C8.45799 14.4034 13.6817 15.3045 18.6406 17.0666Z" fill="white"/>
<path d="M32.0049 24.4483C30.3101 25.7933 28.7103 27.2537 27.2167 28.8192C25.035 27.1754 22.6903 25.76 20.2194 24.5952C21.7209 22.9223 23.3197 21.3393 25.0076 19.8545C27.4741 21.1711 29.8161 22.7086 32.0049 24.4483Z" fill="white"/>
<path d="M41.752 35.0107C40.0276 36.3067 38.4392 37.7744 37.0112 39.3912C35.56 37.1182 33.8827 34.9978 32.005 33.0623C33.4849 31.5221 35.0861 30.1032 36.7931 28.8193C38.619 30.7384 40.278 32.8097 41.752 35.0107Z" fill="white"/>
<path d="M49.6025 60.795V63.9997H43.2072V60.8045C43.215 55.5735 42.1904 50.3925 40.1921 45.5583C41.5566 43.6996 43.1619 42.0305 44.9661 40.5947C48.0262 46.8884 49.6118 53.7968 49.6025 60.795Z" fill="white"/>
<path d="M44.9658 40.5945C43.1617 42.0302 41.5563 43.6993 40.1919 45.558C39.3082 43.4129 38.2357 41.3505 36.9872 39.3951C38.4151 37.7783 40.0035 36.3106 41.7279 35.0146C42.9387 36.7951 44.0207 38.6598 44.9658 40.5945Z" fill="white"/>
<path d="M8.9126 29.1507C7.73022 31.0849 6.65405 33.0822 5.68889 35.1335C4.79738 35.0422 3.9018 34.9963 3.00563 34.996H-9.53674e-07V28.6055H3.00089C4.98413 28.6028 6.96329 28.7853 8.9126 29.1507Z" fill="white"/>
<path d="M22.2578 35.0108C21.055 36.7936 19.9809 38.6598 19.0436 40.5954C16.9376 38.9183 14.5811 37.5826 12.0605 36.6369C13.0198 34.7075 14.0948 32.8379 15.2795 31.0381C17.7619 32.0667 20.1061 33.4012 22.2578 35.0108Z" fill="white"/>
<path d="M27.0225 39.3912C25.7739 41.3466 24.7014 43.409 23.8177 45.5541C22.453 43.6971 20.8476 42.0296 19.0438 40.5953C19.9811 38.6597 21.0552 36.7935 22.258 35.0107C23.9907 36.3055 25.587 37.7732 27.0225 39.3912Z" fill="white"/>
<path d="M35.2002 60.7952V63.9999H28.8097V60.8046C28.8155 55.32 27.0662 49.9775 23.8177 45.5585C24.7014 43.4133 25.7738 41.3509 27.0224 39.3955C32.2961 45.2768 35.2088 52.9005 35.2002 60.7999V60.7952Z" fill="white"/>
<path d="M32.0098 7.2676C29.8061 8.45579 27.6782 9.77941 25.6382 11.2309C18.592 8.03385 10.9426 6.38339 3.20504 6.39057H0.000297546V6.74224e-05H3.19556C13.2557 -0.0149627 23.1602 2.48316 32.0098 7.2676Z" fill="white"/>
<path d="M45.3735 17.0666C43.1807 17.8387 41.0505 18.7786 39.002 19.8778C36.8114 17.9569 34.4716 16.2131 32.0047 14.663C34.0507 13.3829 36.1792 12.2395 38.3762 11.2402C40.8507 13.0051 43.1897 14.9526 45.3735 17.0666Z" fill="white"/>
<path d="M50.1714 22.2291C47.98 22.8335 45.845 23.6266 43.7904 24.5994C42.2901 22.9253 40.6912 21.3422 39.0022 19.8587C41.0513 18.7659 43.1814 17.8324 45.3738 17.0664C47.0707 18.6938 48.6725 20.4176 50.1714 22.2291Z" fill="white"/>
<path d="M55.0967 29.1508C52.9144 29.5604 50.7806 30.196 48.7299 31.0471C47.2447 28.7774 45.5936 26.6208 43.79 24.595C45.8446 23.6222 47.9796 22.8291 50.1711 22.2246C51.9694 24.4179 53.6152 26.7321 55.0967 29.1508Z" fill="white"/>
<path d="M64 60.7954V64.0001H57.6095V60.8048C57.622 52.4158 55.6842 44.1387 51.949 36.6271C53.9966 35.8576 56.135 35.3557 58.3111 35.1338C62.0662 43.167 64.0084 51.9278 64 60.7954Z" fill="white"/>
<path d="M25.0073 19.854C23.3195 21.3387 21.7207 22.9217 20.2192 24.5947C18.1662 23.622 16.0328 22.8289 13.8429 22.2243C15.3419 20.4145 16.9437 18.6923 18.6405 17.0664C20.8304 17.8329 22.9588 18.7648 25.0073 19.854Z" fill="white"/>
<path d="M36.793 28.8192C35.0859 30.1031 33.4847 31.5219 32.0048 33.0621C30.5249 31.5219 28.9237 30.1031 27.2167 28.8192C28.7102 27.2537 30.3101 25.7933 32.0048 24.4482C33.6996 25.7933 35.2994 27.2537 36.793 28.8192Z" fill="white"/>
<path d="M58.311 35.1339C56.1329 35.3585 53.9929 35.8636 51.9442 36.6367C50.9849 34.7073 49.9099 32.8377 48.7253 31.0379C50.776 30.1867 52.9098 29.5512 55.0921 29.1416C56.275 31.078 57.3496 33.0785 58.311 35.1339Z" fill="white"/>
<path d="M38.3765 11.2308C36.1795 12.2301 34.051 13.3735 32.0049 14.6536C29.9594 13.3753 27.8326 12.232 25.6381 11.2308C27.678 9.77939 29.806 8.45577 32.0096 7.26758C34.2118 8.45579 36.3382 9.77941 38.3765 11.2308Z" fill="white"/>
<path d="M15.2793 31.0372C14.0946 32.837 13.0197 34.7066 12.0603 36.636C10.0102 35.8625 7.86854 35.3574 5.68878 35.1332C6.6524 33.082 7.72698 31.0848 8.90775 29.1504C11.0913 29.5566 13.2266 30.189 15.2793 31.0372Z" fill="white"/>
<path d="M8.9126 29.1507C7.73022 31.0849 6.65405 33.0822 5.68889 35.1335C4.79738 35.0422 3.9018 34.9963 3.00563 34.996H-9.53674e-07V28.6055H3.00089C4.98413 28.6028 6.96329 28.7853 8.9126 29.1507Z" fill="white"/>
<path d="M22.2578 35.0108C21.055 36.7936 19.9809 38.6598 19.0436 40.5954C16.9376 38.9183 14.5811 37.5826 12.0605 36.6369C13.0198 34.7075 14.0948 32.8379 15.2795 31.0381C17.7619 32.0667 20.1061 33.4012 22.2578 35.0108Z" fill="white"/>
<path d="M27.0225 39.3912C25.7739 41.3466 24.7014 43.409 23.8177 45.5541C22.453 43.6971 20.8476 42.0296 19.0438 40.5953C19.9811 38.6597 21.0552 36.7935 22.258 35.0107C23.9907 36.3055 25.587 37.7732 27.0225 39.3912Z" fill="white"/>
<path d="M35.2002 60.7952V63.9999H28.8097V60.8046C28.8155 55.32 27.0662 49.9775 23.8177 45.5585C24.7014 43.4133 25.7738 41.3509 27.0224 39.3955C32.2961 45.2768 35.2088 52.9005 35.2002 60.7999V60.7952Z" fill="white"/>
<path d="M32.0098 7.2676C29.8061 8.45579 27.6782 9.77941 25.6382 11.2309C18.592 8.03385 10.9426 6.38339 3.20504 6.39057H0.000297546V6.74224e-05H3.19556C13.2557 -0.0149627 23.1602 2.48316 32.0098 7.2676Z" fill="white"/>
<path d="M45.3735 17.0666C43.1807 17.8387 41.0505 18.7786 39.002 19.8778C36.8114 17.9569 34.4716 16.2131 32.0047 14.663C34.0507 13.3829 36.1792 12.2395 38.3762 11.2402C40.8507 13.0051 43.1897 14.9526 45.3735 17.0666Z" fill="white"/>
<path d="M50.1714 22.2291C47.98 22.8335 45.845 23.6266 43.7904 24.5994C42.2901 22.9253 40.6912 21.3422 39.0022 19.8587C41.0513 18.7659 43.1814 17.8324 45.3738 17.0664C47.0707 18.6938 48.6725 20.4176 50.1714 22.2291Z" fill="white"/>
<path d="M55.0967 29.1508C52.9144 29.5604 50.7806 30.196 48.7299 31.0471C47.2447 28.7774 45.5936 26.6208 43.79 24.595C45.8446 23.6222 47.9796 22.8291 50.1711 22.2246C51.9694 24.4179 53.6152 26.7321 55.0967 29.1508Z" fill="white"/>
<path d="M64 60.7954V64.0001H57.6095V60.8048C57.622 52.4158 55.6842 44.1387 51.949 36.6271C53.9966 35.8576 56.135 35.3557 58.3111 35.1338C62.0662 43.167 64.0084 51.9278 64 60.7954Z" fill="white"/>
<path d="M18.6406 17.0666C16.9437 18.6941 15.3419 20.4178 13.843 22.2293C10.3775 21.2767 6.79883 20.7983 3.20479 20.8071H5.53131e-05V14.4023H3.19531C8.45799 14.4034 13.6817 15.3045 18.6406 17.0666Z" fill="white"/>
<path d="M32.0049 24.4483C30.3101 25.7933 28.7103 27.2537 27.2167 28.8192C25.035 27.1754 22.6903 25.76 20.2194 24.5952C21.7209 22.9223 23.3197 21.3393 25.0076 19.8545C27.4741 21.1711 29.8161 22.7086 32.0049 24.4483Z" fill="white"/>
<path d="M41.752 35.0107C40.0276 36.3067 38.4392 37.7744 37.0112 39.3912C35.56 37.1182 33.8827 34.9978 32.005 33.0623C33.4849 31.5221 35.0861 30.1032 36.7931 28.8193C38.619 30.7384 40.278 32.8097 41.752 35.0107Z" fill="white"/>
<path d="M49.6025 60.795V63.9997H43.2072V60.8045C43.215 55.5735 42.1904 50.3925 40.1921 45.5583C41.5566 43.6996 43.1619 42.0305 44.9661 40.5947C48.0262 46.8884 49.6118 53.7968 49.6025 60.795Z" fill="white"/>
<path d="M44.9658 40.5945C43.1617 42.0302 41.5563 43.6993 40.1919 45.558C39.3082 43.4129 38.2357 41.3505 36.9872 39.3951C38.4151 37.7783 40.0035 36.3106 41.7279 35.0146C42.9387 36.7951 44.0207 38.6598 44.9658 40.5945Z" fill="white"/>
<path d="M25.0073 19.854C23.3195 21.3387 21.7207 22.9217 20.2192 24.5947C18.1662 23.622 16.0328 22.8289 13.8429 22.2243C15.3419 20.4145 16.9437 18.6923 18.6405 17.0664C20.8304 17.8329 22.9588 18.7648 25.0073 19.854Z" fill="white"/>
<path d="M36.793 28.8192C35.0859 30.1031 33.4847 31.5219 32.0048 33.0621C30.5249 31.5219 28.9237 30.1031 27.2167 28.8192C28.7102 27.2537 30.3101 25.7933 32.0048 24.4482C33.6996 25.7933 35.2994 27.2537 36.793 28.8192Z" fill="white"/>
<path d="M58.311 35.1339C56.1329 35.3585 53.9929 35.8636 51.9442 36.6367C50.9849 34.7073 49.9099 32.8377 48.7253 31.0379C50.776 30.1867 52.9098 29.5512 55.0921 29.1416C56.275 31.078 57.3496 33.0785 58.311 35.1339Z" fill="white"/>
<path d="M38.3765 11.2308C36.1795 12.2301 34.051 13.3735 32.0049 14.6536C29.9594 13.3753 27.8326 12.232 25.6381 11.2308C27.678 9.77939 29.806 8.45577 32.0096 7.26758C34.2118 8.45579 36.3382 9.77941 38.3765 11.2308Z" fill="white"/>
<path d="M15.2793 31.0372C14.0946 32.837 13.0197 34.7066 12.0603 36.636C10.0102 35.8625 7.86854 35.3574 5.68878 35.1332C6.6524 33.082 7.72698 31.0848 8.90775 29.1504C11.0913 29.5566 13.2266 30.189 15.2793 31.0372Z" fill="white"/>
</svg>
