<svg width="40" height="40" viewBox="0 0 40 40" fill="none" xmlns="http://www.w3.org/2000/svg">
<path opacity="0.75" d="M19.9997 3.33301C24.528 3.33301 25.093 3.34967 26.8697 3.43301C28.6447 3.51634 29.853 3.79467 30.9163 4.20801C32.0163 4.63134 32.943 5.20467 33.8697 6.12967C34.7172 6.96283 35.3729 7.97066 35.7913 9.08301C36.203 10.1447 36.483 11.3547 36.5663 13.1297C36.6447 14.9063 36.6663 15.4713 36.6663 19.9997C36.6663 24.528 36.6497 25.093 36.5663 26.8697C36.483 28.6447 36.203 29.853 35.7913 30.9163C35.3741 32.0293 34.7182 33.0374 33.8697 33.8697C33.0363 34.7169 32.0285 35.3726 30.9163 35.7913C29.8547 36.203 28.6447 36.483 26.8697 36.5663C25.093 36.6447 24.528 36.6663 19.9997 36.6663C15.4713 36.6663 14.9063 36.6497 13.1297 36.5663C11.3547 36.483 10.1463 36.203 9.08301 35.7913C7.97022 35.3738 6.96222 34.7179 6.12967 33.8697C5.28202 33.0367 4.62623 32.0288 4.20801 30.9163C3.79467 29.8547 3.51634 28.6447 3.43301 26.8697C3.35467 25.093 3.33301 24.528 3.33301 19.9997C3.33301 15.4713 3.34967 14.9063 3.43301 13.1297C3.51634 11.353 3.79467 10.1463 4.20801 9.08301C4.62507 7.96997 5.28101 6.96188 6.12967 6.12967C6.96246 5.28173 7.97039 4.62589 9.08301 4.20801C10.1463 3.79467 11.353 3.51634 13.1297 3.43301C14.9063 3.35467 15.4713 3.33301 19.9997 3.33301ZM19.9997 11.6663C17.7895 11.6663 15.6699 12.5443 14.1071 14.1071C12.5443 15.6699 11.6663 17.7895 11.6663 19.9997C11.6663 22.2098 12.5443 24.3294 14.1071 25.8922C15.6699 27.455 17.7895 28.333 19.9997 28.333C22.2098 28.333 24.3294 27.455 25.8922 25.8922C27.455 24.3294 28.333 22.2098 28.333 19.9997C28.333 17.7895 27.455 15.6699 25.8922 14.1071C24.3294 12.5443 22.2098 11.6663 19.9997 11.6663ZM30.833 11.2497C30.833 10.6971 30.6135 10.1672 30.2228 9.77654C29.8321 9.38583 29.3022 9.16634 28.7497 9.16634C28.1971 9.16634 27.6672 9.38583 27.2765 9.77654C26.8858 10.1672 26.6663 10.6971 26.6663 11.2497C26.6663 11.8022 26.8858 12.3321 27.2765 12.7228C27.6672 13.1135 28.1971 13.333 28.7497 13.333C29.3022 13.333 29.8321 13.1135 30.2228 12.7228C30.6135 12.3321 30.833 11.8022 30.833 11.2497ZM19.9997 14.9997C21.3258 14.9997 22.5975 15.5265 23.5352 16.4641C24.4729 17.4018 24.9997 18.6736 24.9997 19.9997C24.9997 21.3258 24.4729 22.5975 23.5352 23.5352C22.5975 24.4729 21.3258 24.9997 19.9997 24.9997C18.6736 24.9997 17.4018 24.4729 16.4641 23.5352C15.5265 22.5975 14.9997 21.3258 14.9997 19.9997C14.9997 18.6736 15.5265 17.4018 16.4641 16.4641C17.4018 15.5265 18.6736 14.9997 19.9997 14.9997Z" fill="#222220"/>
</svg>
