<svg width="64" height="64" viewBox="0 0 64 64" fill="none" xmlns="http://www.w3.org/2000/svg">
<circle cx="32" cy="32" r="32" fill="#E6362D"/>
<path d="M33.3329 35.1481C33.3329 36.039 34.41 36.4852 35.04 35.8552L39.7778 31.1174C40.1683 30.7269 40.8015 30.7269 41.192 31.1174L41.6631 31.5886C42.0537 31.9791 42.0537 32.6123 41.6631 33.0028L32.7067 41.9592C32.3162 42.3498 31.683 42.3498 31.2925 41.9592L22.336 33.0028C21.9455 32.6123 21.9455 31.9791 22.336 31.5886L22.8071 31.1174C23.1977 30.7269 23.8308 30.7269 24.2213 31.1174L28.9591 35.8552C29.5891 36.4852 30.6662 36.039 30.6662 35.1481V22.333C30.6662 21.7807 31.114 21.333 31.6662 21.333H32.3329C32.8852 21.333 33.3329 21.7807 33.3329 22.333V35.1481Z" fill="white"/>
</svg>
