<svg width="40" height="40" viewBox="0 0 40 40" fill="none" xmlns="http://www.w3.org/2000/svg">
<path opacity="0.75" d="M36.9365 9.42654C35.6641 9.98937 34.3148 10.359 32.9332 10.5232C34.3894 9.65227 35.4794 8.28157 35.9998 6.66654C34.6332 7.47988 33.1348 8.04988 31.5732 8.35821C30.5242 7.23584 29.1338 6.49148 27.6181 6.24085C26.1024 5.99022 24.5464 6.24736 23.192 6.9723C21.8375 7.69724 20.7605 8.84935 20.1284 10.2495C19.4962 11.6497 19.3444 13.2195 19.6965 14.7149C16.925 14.576 14.2137 13.8558 11.7387 12.601C9.26358 11.3462 7.08006 9.58496 5.32984 7.43154C4.71033 8.49563 4.38477 9.70526 4.38651 10.9365C4.38651 13.3532 5.61651 15.4882 7.48651 16.7382C6.37986 16.7034 5.29756 16.4045 4.32984 15.8665V15.9532C4.33018 17.5627 4.88713 19.1226 5.90626 20.3683C6.92539 21.6141 8.34398 22.469 9.92151 22.7882C8.8942 23.0666 7.81702 23.1076 6.77151 22.9082C7.21629 24.2936 8.08319 25.5052 9.25083 26.3734C10.4185 27.2416 11.8284 27.7229 13.2832 27.7499C11.8373 28.8854 10.1818 29.7248 8.41131 30.2202C6.64082 30.7155 4.79006 30.857 2.96484 30.6365C6.15101 32.6856 9.86001 33.7734 13.6482 33.7699C26.4698 33.7699 33.4815 23.1482 33.4815 13.9365C33.4815 13.6365 33.4732 13.3332 33.4598 13.0365C34.8246 12.0502 36.0025 10.8282 36.9382 9.42821L36.9365 9.42654Z" fill="#222220"/>
</svg>
