<svg width="40" height="40" viewBox="0 0 40 40" fill="none" xmlns="http://www.w3.org/2000/svg">
<path opacity="0.75" d="M35.9047 10.8303C36.6663 13.8003 36.6663 20.0003 36.6663 20.0003C36.6663 20.0003 36.6663 26.2003 35.9047 29.1703C35.4813 30.812 34.243 32.1037 32.6747 32.5403C29.8263 33.3337 19.9997 33.3337 19.9997 33.3337C19.9997 33.3337 10.178 33.3337 7.32467 32.5403C5.74967 32.097 4.51301 30.807 4.09467 29.1703C3.33301 26.2003 3.33301 20.0003 3.33301 20.0003C3.33301 20.0003 3.33301 13.8003 4.09467 10.8303C4.51801 9.18866 5.75634 7.89699 7.32467 7.46033C10.178 6.66699 19.9997 6.66699 19.9997 6.66699C19.9997 6.66699 29.8263 6.66699 32.6747 7.46033C34.2497 7.90366 35.4863 9.19366 35.9047 10.8303ZM16.6663 25.8337L26.6663 20.0003L16.6663 14.167V25.8337Z" fill="#222220"/>
</svg>
