<svg width="125" height="60" viewBox="0 0 125 60" fill="none" xmlns="http://www.w3.org/2000/svg">
<path d="M73.4588 21.3134C73.4588 24.6701 71.2947 27.8292 64.0472 27.8292C56.7996 27.8292 54.6389 24.6701 54.6389 21.3134V6.51928C54.6389 3.15923 56.7996 0.00012207 64.0472 0.00012207C71.2947 0.00012207 73.4588 3.15923 73.4588 6.51928V8.43648C73.4588 9.15791 73.218 9.42473 72.5384 9.42473H69.2132C68.494 9.42473 68.2235 9.14473 68.2235 8.43648V7.47788C68.2235 5.47832 66.8215 4.47689 64.1395 4.47689C61.4576 4.47689 60.0951 5.46515 60.0951 7.47788V20.3515C60.0951 22.351 61.4543 23.3525 64.1395 23.3525C66.8248 23.3525 68.2235 22.3642 68.2235 20.3515V18.8329C68.2235 18.1115 68.5039 17.8446 69.2132 17.8446H72.5384C73.218 17.8446 73.4588 18.1213 73.4588 18.8329V21.3134Z" fill="#E6362D"/>
<path d="M89.8574 26.4689C89.8574 27.1903 89.6199 27.5099 88.8974 27.5099H85.4138C84.6947 27.5099 84.4539 27.1805 84.4539 26.4689V1.36078C84.4539 0.639358 84.6947 0.319824 85.4138 0.319824H88.8974C89.6199 0.319824 89.8574 0.649241 89.8574 1.36078V26.4689Z" fill="#E6362D"/>
<path d="M107.42 17.8744V26.4689C107.42 27.1903 107.18 27.5099 106.461 27.5099H102.977C102.254 27.5099 102.014 27.1805 102.014 26.4689V1.36078C102.014 0.639358 102.254 0.319824 102.977 0.319824H111.386C118.643 0.319824 121.074 3.47893 121.074 6.83898V11.3553C121.074 14.7153 118.633 17.8744 111.386 17.8744H107.42ZM107.42 4.79989V13.3944H111.379C114.061 13.3944 115.704 12.4061 115.704 10.4296V7.79429C115.704 5.79473 114.054 4.7966 111.379 4.7966L107.42 4.79989Z" fill="#E6362D"/>
<path d="M125 31.5154H50.7133V44.4648H125V31.5154Z" fill="#602483"/>
<path d="M55.048 38.9767V41.1113C55.048 41.2892 54.9886 41.3683 54.8104 41.3683H53.9428C53.7647 41.3683 53.7053 41.2892 53.7053 41.1113V34.8722C53.7053 34.6943 53.7647 34.6152 53.9428 34.6152H56.0343C57.8355 34.6152 58.4392 35.3992 58.4392 36.2327V37.356C58.4392 38.1894 57.8355 38.9767 56.0343 38.9767H55.048ZM55.048 35.7254V37.8633H56.0376C56.6974 37.8633 57.1097 37.6129 57.1097 37.1287V36.4698C57.1097 35.9724 56.704 35.7221 56.0376 35.7221L55.048 35.7254Z" fill="white"/>
<path d="M63.5227 34.6152C63.5992 34.6048 63.6767 34.6249 63.7384 34.6712C63.8001 34.7174 63.8412 34.7861 63.8526 34.8623L65.7032 41.1212C65.7527 41.2793 65.7032 41.3683 65.5251 41.3683H64.6311C64.4596 41.3683 64.3903 41.2793 64.3408 41.1212L63.9977 39.9089H62.1471L61.7974 41.1212C61.7479 41.2793 61.6787 41.3683 61.5005 41.3683H60.6956C60.5142 41.3683 60.4548 41.2793 60.5043 41.1212L62.3648 34.8623C62.3747 34.7892 62.4125 34.7227 62.4702 34.6766C62.528 34.6306 62.6013 34.6086 62.6749 34.6152H63.5227ZM63.3545 37.7447C63.2196 37.1486 63.1227 36.5445 63.0642 35.9362C63.0444 36.0647 62.8761 37.3164 62.7574 37.7348L62.4275 38.8449H63.6679L63.3545 37.7447Z" fill="white"/>
<path d="M71.8061 34.6152C71.9776 34.6152 72.0568 34.6745 72.0568 34.8524V35.4783C72.0568 35.6562 71.9776 35.7254 71.8061 35.7254H70.3942V41.1113C70.3942 41.2892 70.3348 41.3683 70.1567 41.3683H69.2759C69.0977 41.3683 69.0285 41.2892 69.0285 41.1113V35.7254H67.6264C67.4483 35.7254 67.379 35.6562 67.379 35.4783V34.8524C67.379 34.6745 67.4483 34.6152 67.6264 34.6152H71.8061Z" fill="white"/>
<path d="M76.2035 38.7955V41.1014C76.2035 41.2793 76.1441 41.3584 75.9627 41.3584H75.0984C74.9202 41.3584 74.8608 41.2793 74.8608 41.1014V34.8722C74.8608 34.6943 74.9202 34.6152 75.0984 34.6152H77.1931C78.9943 34.6152 79.6013 35.3992 79.6013 36.2327V37.1781C79.6043 37.5032 79.499 37.8201 79.3019 38.0789C79.1048 38.3377 78.8272 38.5238 78.5127 38.6078L79.5881 41.1113C79.6574 41.2695 79.5386 41.3683 79.3605 41.3683H78.483C78.3444 41.3683 78.3048 41.2695 78.2356 41.1113L77.2459 38.8054H76.2035V38.7955ZM76.2035 35.7254V37.7019H77.1931C77.8529 37.7019 78.2686 37.4515 78.2686 36.9541V36.4896C78.2686 35.9922 77.8595 35.7418 77.1931 35.7418L76.2035 35.7254Z" fill="white"/>
<path d="M84.1603 41.1113C84.1603 41.2892 84.1009 41.3683 83.9195 41.3683H83.0552C82.8771 41.3683 82.8177 41.2892 82.8177 41.1113V34.8722C82.8177 34.6943 82.8771 34.6152 83.0552 34.6152H83.9195C84.1009 34.6152 84.1603 34.6943 84.1603 34.8722V41.1113Z" fill="white"/>
<path d="M93.5686 41.1212C93.5686 41.2892 93.5092 41.3683 93.3311 41.3683H92.5031C92.3249 41.3683 92.2655 41.2892 92.2655 41.1212V37.3461C92.2655 37.3757 92.0775 37.9819 91.9785 38.2487L91.2198 40.0967C91.2017 40.1698 91.1592 40.2345 91.0991 40.2801C91.0391 40.3256 90.9653 40.3493 90.8899 40.3471H90.184C90.1086 40.3493 90.0348 40.3256 89.9747 40.2801C89.9147 40.2345 89.8721 40.1698 89.8541 40.0967L89.0096 38.1005C88.9123 37.8627 88.8361 37.6169 88.782 37.3659V41.1212C88.782 41.2892 88.7226 41.3683 88.5411 41.3683H87.756C87.5779 41.3683 87.5185 41.2892 87.5185 41.1212V34.8623C87.5185 34.6943 87.5779 34.6152 87.756 34.6152H88.5411C88.5883 34.6096 88.6359 34.6203 88.6761 34.6455C88.7163 34.6706 88.7467 34.7088 88.7622 34.7536L90.2961 38.2125C90.4149 38.4826 90.5435 38.9075 90.5435 38.9075C90.5435 38.9075 90.6722 38.5221 90.8042 38.2223L92.2754 34.7272C92.315 34.6383 92.3843 34.6086 92.5031 34.6086H93.3311C93.5092 34.6086 93.5686 34.6877 93.5686 34.8557V41.1212Z" fill="white"/>
<path d="M96.8278 36.1536C96.8278 35.3201 97.4447 34.5361 99.2459 34.5361C101.047 34.5361 101.664 35.3201 101.664 36.1536V39.8299C101.664 40.6633 101.047 41.4473 99.2459 41.4473C97.4447 41.4473 96.8278 40.6633 96.8278 39.8299V36.1536ZM100.321 36.394C100.321 35.8966 99.9123 35.6463 99.2459 35.6463C98.5795 35.6463 98.1837 35.8966 98.1837 36.394V39.5927C98.1837 40.0868 98.5795 40.3372 99.2459 40.3372C99.9123 40.3372 100.321 40.0868 100.321 39.5927V36.394Z" fill="white"/>
<path d="M106.289 41.1113C106.289 41.2892 106.23 41.3683 106.048 41.3683H105.184C105.006 41.3683 104.946 41.2892 104.946 41.1113V34.8722C104.946 34.6943 105.006 34.6152 105.184 34.6152H106.048C106.23 34.6152 106.289 34.6943 106.289 34.8722V41.1113Z" fill="white"/>
<path d="M114.493 41.1212C114.493 41.2892 114.434 41.3682 114.256 41.3682H113.48C113.349 41.3682 113.299 41.3386 113.25 41.2496L111.33 37.9555C111.173 37.7003 111.041 37.4312 110.934 37.1517V41.1047C110.934 41.2727 110.874 41.3518 110.693 41.3518H109.908C109.73 41.3518 109.67 41.2727 109.67 41.1047V34.8458C109.67 34.6778 109.73 34.5987 109.908 34.5987H110.693C110.734 34.5926 110.776 34.5988 110.813 34.6164C110.851 34.6339 110.882 34.6622 110.904 34.6975L112.903 38.1235C113.026 38.349 113.136 38.5811 113.233 38.8185V34.8622C113.233 34.6942 113.292 34.6152 113.474 34.6152H114.259C114.437 34.6152 114.496 34.6942 114.496 34.8622L114.493 41.1212Z" fill="white"/>
<path d="M118.099 41.3683C117.921 41.3683 117.861 41.2892 117.861 41.1113V34.8722C117.861 34.6943 117.921 34.6152 118.099 34.6152H121.503C121.672 34.6152 121.751 34.6745 121.751 34.8524V35.4783C121.751 35.6562 121.672 35.7254 121.503 35.7254H119.194V37.3362H121.322C121.503 37.3362 121.582 37.3955 121.582 37.5734V38.1696C121.582 38.3409 121.503 38.4101 121.322 38.4101H119.194V40.2581H121.592C121.77 40.2581 121.84 40.3174 121.84 40.4953V41.1212C121.84 41.2991 121.77 41.3683 121.592 41.3683H118.099Z" fill="white"/>
<path d="M31.5635 11.8591C32.7443 12.99 33.8589 14.1877 34.9019 15.4465C37.3134 14.7846 39.8036 14.4521 42.3045 14.4582H44.5345V10.0078H42.3111C38.6491 10.0086 35.0141 10.6347 31.5635 11.8591V11.8591Z" fill="#E6362D"/>
<path d="M22.264 16.9882C23.4433 17.9228 24.5565 18.9376 25.5958 20.0254C27.114 18.8832 28.7456 17.8997 30.4649 17.0903C29.4201 15.9278 28.3076 14.8279 27.1331 13.7961C25.4167 14.711 23.787 15.7794 22.264 16.9882V16.9882Z" fill="#E6362D"/>
<path d="M15.4816 24.3276C16.6815 25.2281 17.7868 26.2479 18.7804 27.3714C19.7902 25.792 20.9574 24.3186 22.264 22.9737C21.2342 21.9034 20.12 20.9175 18.9322 20.0254C17.6616 21.3589 16.5072 22.7982 15.4816 24.3276V24.3276Z" fill="#E6362D"/>
<path d="M10.0186 42.2446V44.4714H14.4688V42.2512C14.4634 38.6164 15.1764 35.0163 16.5669 31.6571C15.6174 30.3656 14.5003 29.2058 13.2449 28.2081C11.1155 32.5814 10.0122 37.3818 10.0186 42.2446V42.2446Z" fill="#E6362D"/>
<path d="M13.2449 28.208C14.5003 29.2057 15.6174 30.3655 16.5668 31.657C17.1818 30.1665 17.928 28.7334 18.7968 27.3746C17.8032 26.2512 16.6979 25.2313 15.498 24.3308C14.6555 25.568 13.9025 26.8637 13.2449 28.208V28.208Z" fill="#E6362D"/>
<path d="M38.3327 20.2559C39.1555 21.6 39.9043 22.9878 40.5759 24.4132C41.1963 24.3497 41.8195 24.3178 42.4431 24.3176H44.5345V19.8771H42.4464C41.0663 19.8752 39.6891 20.0021 38.3327 20.2559Z" fill="#E6362D"/>
<path d="M29.0464 24.3276C29.8834 25.5664 30.6309 26.8632 31.2831 28.2082C32.7486 27.0429 34.3883 26.1147 36.1423 25.4575C35.4747 24.1169 34.7267 22.8177 33.9023 21.5671C32.1749 22.2819 30.5437 23.2092 29.0464 24.3276V24.3276Z" fill="#E6362D"/>
<path d="M25.7311 27.3713C26.5999 28.7301 27.3462 30.1632 27.9611 31.6537C28.9108 30.3634 30.0278 29.2047 31.283 28.208C30.6308 26.8631 29.8834 25.5663 29.0464 24.3275C27.8408 25.2272 26.7299 26.247 25.7311 27.3713Z" fill="#E6362D"/>
<path d="M20.0406 42.2445V44.4714H24.4875V42.2511C24.4834 38.44 25.7007 34.7277 27.9611 31.6571C27.3462 30.1665 26.5999 28.7334 25.7311 27.3746C22.0614 31.4613 20.0346 36.7588 20.0406 42.2478V42.2445Z" fill="#E6362D"/>
<path d="M22.2607 5.05C23.7941 5.87564 25.2748 6.79537 26.6943 7.80393C31.5975 5.58244 36.9203 4.4356 42.3045 4.44058H44.5345V4.68495e-05H42.3111C35.3107 -0.010397 28.4187 1.72546 22.2607 5.05V5.05Z" fill="#E6362D"/>
<path d="M12.9612 11.8591C14.4872 12.3956 15.9694 13.0487 17.3949 13.8125C18.9192 12.4777 20.5474 11.266 22.264 10.1889C20.8402 9.29943 19.3591 8.5049 17.8303 7.81055C16.1084 9.03687 14.4809 10.3902 12.9612 11.8591V11.8591Z" fill="#E6362D"/>
<path d="M9.6228 15.4465C11.1477 15.8665 12.6333 16.4176 14.0631 17.0936C15.107 15.9303 16.2196 14.8303 17.3949 13.7994C15.969 13.0401 14.4868 12.3914 12.9612 11.8591C11.7804 12.99 10.6658 14.1877 9.6228 15.4465V15.4465Z" fill="#E6362D"/>
<path d="M6.19531 20.2559C7.71386 20.5405 9.19863 20.9821 10.6257 21.5736C11.6591 19.9965 12.808 18.4979 14.0631 17.0902C12.6334 16.4142 11.1477 15.8632 9.62282 15.4431C8.37141 16.9672 7.22622 18.5752 6.19531 20.2559V20.2559Z" fill="#E6362D"/>
<path d="M7.9969e-05 42.2445V44.4714H4.44693V42.2511C4.43819 36.4219 5.78662 30.6704 8.38576 25.4509C6.96094 24.9162 5.47295 24.5674 3.9587 24.4132C1.3457 29.9952 -0.00577359 36.0828 7.9969e-05 42.2445V42.2445Z" fill="#E6362D"/>
<path d="M27.1331 13.7961C28.3076 14.8278 29.4201 15.9278 30.465 17.0903C31.8935 16.4144 33.3781 15.8633 34.9019 15.4432C33.8588 14.1856 32.7442 12.9889 31.5635 11.8591C30.0397 12.3917 28.5586 13.0393 27.1331 13.7961V13.7961Z" fill="#E6362D"/>
<path d="M18.9321 20.0254C20.12 20.9175 21.2342 21.9034 22.264 22.9737C23.2938 21.9034 24.4079 20.9175 25.5958 20.0254C24.5565 18.9376 23.4433 17.9228 22.264 16.9882C21.0847 17.9228 19.9714 18.9376 18.9321 20.0254V20.0254Z" fill="#602483"/>
<path d="M27.9611 31.657C29.3507 35.0141 30.0637 38.6119 30.0591 42.2445V44.4713H34.5093V42.251C34.5157 37.3882 33.4124 32.5879 31.283 28.2146C30.028 29.2102 28.9109 30.3678 27.9611 31.657V31.657Z" fill="#602483"/>
<path d="M22.264 22.9737C23.5649 24.3194 24.7265 25.7928 25.7311 27.3714C26.7247 26.2479 27.83 25.2281 29.0299 24.3276C28.0095 22.7988 26.8607 21.3596 25.5958 20.0254C24.408 20.9175 23.2938 21.9034 22.264 22.9737V22.9737Z" fill="#602483"/>
<path d="M14.063 17.0903C15.7824 17.8997 17.414 18.8832 18.9321 20.0254C19.9714 18.9376 21.0847 17.9228 22.264 16.9882C20.7409 15.7794 19.1112 14.711 17.3949 13.7961C16.2196 14.827 15.107 15.927 14.063 17.0903V17.0903Z" fill="#602483"/>
<path d="M6.10352e-05 10.0078V14.4483H2.22349C4.72332 14.4422 7.21245 14.7747 9.6228 15.4366C10.6661 14.1812 11.7807 12.9868 12.9612 11.8591C9.51379 10.6355 5.88223 10.0094 2.22349 10.0078H6.10352e-05Z" fill="#602483"/>
<path d="M8.38574 25.4575C10.1397 26.1147 11.7795 27.0429 13.2449 28.2082C13.8971 26.8632 14.6446 25.5664 15.4816 24.3276C13.9843 23.2092 12.3531 22.2819 10.6257 21.5671C9.80129 22.8177 9.05329 24.1169 8.38574 25.4575V25.4575Z" fill="#602483"/>
<path d="M6.10352e-05 19.8772V24.3177H2.08823C2.71184 24.3179 3.33502 24.3498 3.95538 24.4133C4.62462 22.9873 5.3724 21.5994 6.1953 20.256C4.84104 20.0026 3.46607 19.8758 2.08823 19.8772H6.10352e-05Z" fill="#602483"/>
<path d="M3.95868 24.4132C5.47435 24.5693 6.96346 24.9203 8.38903 25.4575C9.05659 24.1168 9.80459 22.8177 10.629 21.5671C9.20191 20.9756 7.71714 20.534 6.1986 20.2494C5.37549 21.5949 4.6277 22.985 3.95868 24.4132V24.4132Z" fill="#602483"/>
<path d="M17.8303 7.80397C19.3591 8.49833 20.8402 9.29286 22.264 10.1824C23.6874 9.29412 25.1673 8.49964 26.6943 7.80397C25.2748 6.79542 23.7941 5.87568 22.2607 5.05005C20.7283 5.8757 19.2487 6.79544 17.8303 7.80397V7.80397Z" fill="#602483"/>
<path d="M33.9023 21.5671C34.7267 22.8177 35.4747 24.1168 36.1423 25.4575C37.5689 24.92 39.0591 24.569 40.5759 24.4132C39.9054 22.9879 39.1576 21.6001 38.336 20.256C36.8166 20.5383 35.3307 20.9777 33.9023 21.5671V21.5671Z" fill="#602483"/>
<path d="M40.5759 24.4132C39.0603 24.5693 37.5711 24.9202 36.1456 25.4575C38.7447 30.677 40.0931 36.4285 40.0844 42.2577V44.4714H44.5345V42.2511C44.5414 36.0872 43.1899 29.9972 40.5759 24.4132V24.4132Z" fill="#602483"/>
<path d="M30.465 17.0903C31.7197 18.4959 32.8687 19.9923 33.9024 21.5671C35.3294 20.9757 36.8142 20.5341 38.3327 20.2494C37.3017 18.5691 36.1553 16.9621 34.9019 15.4399C33.378 15.8611 31.8935 16.4133 30.465 17.0903V17.0903Z" fill="#602483"/>
<path d="M22.264 10.1823C23.9806 11.2594 25.6088 12.4711 27.1331 13.8059C28.5583 13.0457 30.0393 12.3949 31.5634 11.8591C30.044 10.3879 28.4165 9.03239 26.6943 7.80396C25.1673 8.49962 23.6874 9.29411 22.264 10.1823V10.1823Z" fill="#602483"/>
<path d="M6.10352e-05 3.4397e-05V4.44057H2.22349C7.60661 4.43585 12.9283 5.58269 17.8303 7.80392C19.2487 6.79538 20.7283 5.87564 22.2607 5.04999C16.1069 1.72692 9.21944 -0.00891066 2.22349 3.4397e-05H6.10352e-05Z" fill="#602483"/>
<path d="M18.8035 27.3713C17.9347 28.7301 17.1884 30.1632 16.5735 31.6538C18.8326 34.7226 20.0498 38.4324 20.0472 42.2412V44.4714H24.4874V42.2511C24.4919 38.8877 23.7316 35.5672 22.264 32.5399C21.3578 30.6641 20.193 28.9244 18.8035 27.3713V27.3713Z" fill="#602483"/>
<path d="M73.4588 21.3134C73.4588 24.6701 71.2947 27.8292 64.0472 27.8292C56.7996 27.8292 54.6389 24.6701 54.6389 21.3134V6.51928C54.6389 3.15923 56.7996 0.00012207 64.0472 0.00012207C71.2947 0.00012207 73.4588 3.15923 73.4588 6.51928V8.43648C73.4588 9.15791 73.218 9.42473 72.5384 9.42473H69.2132C68.494 9.42473 68.2235 9.14473 68.2235 8.43648V7.47788C68.2235 5.47832 66.8215 4.47689 64.1395 4.47689C61.4576 4.47689 60.0951 5.46515 60.0951 7.47788V20.3515C60.0951 22.351 61.4543 23.3525 64.1395 23.3525C66.8248 23.3525 68.2235 22.3642 68.2235 20.3515V18.8329C68.2235 18.1115 68.5039 17.8446 69.2132 17.8446H72.5384C73.218 17.8446 73.4588 18.1213 73.4588 18.8329V21.3134Z" fill="#E6362D"/>
<path d="M89.8574 26.4689C89.8574 27.1903 89.6199 27.5099 88.8974 27.5099H85.4138C84.6947 27.5099 84.4539 27.1805 84.4539 26.4689V1.36078C84.4539 0.639358 84.6947 0.319824 85.4138 0.319824H88.8974C89.6199 0.319824 89.8574 0.649241 89.8574 1.36078V26.4689Z" fill="#E6362D"/>
<path d="M107.42 17.8744V26.4689C107.42 27.1903 107.18 27.5099 106.461 27.5099H102.977C102.254 27.5099 102.014 27.1805 102.014 26.4689V1.36078C102.014 0.639358 102.254 0.319824 102.977 0.319824H111.386C118.643 0.319824 121.074 3.47893 121.074 6.83898V11.3553C121.074 14.7153 118.633 17.8744 111.386 17.8744H107.42ZM107.42 4.79989V13.3944H111.379C114.061 13.3944 115.704 12.4061 115.704 10.4296V7.79429C115.704 5.79473 114.054 4.7966 111.379 4.7966L107.42 4.79989Z" fill="#E6362D"/>
<path d="M125 31.5154H50.7133V44.4648H125V31.5154Z" fill="#602483"/>
<path d="M55.048 38.9767V41.1113C55.048 41.2892 54.9886 41.3683 54.8104 41.3683H53.9428C53.7647 41.3683 53.7053 41.2892 53.7053 41.1113V34.8722C53.7053 34.6943 53.7647 34.6152 53.9428 34.6152H56.0343C57.8355 34.6152 58.4392 35.3992 58.4392 36.2327V37.356C58.4392 38.1894 57.8355 38.9767 56.0343 38.9767H55.048ZM55.048 35.7254V37.8633H56.0376C56.6974 37.8633 57.1097 37.6129 57.1097 37.1287V36.4698C57.1097 35.9724 56.704 35.7221 56.0376 35.7221L55.048 35.7254Z" fill="white"/>
<path d="M63.5227 34.6152C63.5992 34.6048 63.6767 34.6249 63.7384 34.6712C63.8001 34.7174 63.8412 34.7861 63.8526 34.8623L65.7032 41.1212C65.7527 41.2793 65.7032 41.3683 65.5251 41.3683H64.6311C64.4596 41.3683 64.3903 41.2793 64.3408 41.1212L63.9977 39.9089H62.1471L61.7974 41.1212C61.7479 41.2793 61.6787 41.3683 61.5005 41.3683H60.6956C60.5142 41.3683 60.4548 41.2793 60.5043 41.1212L62.3648 34.8623C62.3747 34.7892 62.4125 34.7227 62.4702 34.6766C62.528 34.6306 62.6013 34.6086 62.6749 34.6152H63.5227ZM63.3545 37.7447C63.2196 37.1486 63.1227 36.5445 63.0642 35.9362C63.0444 36.0647 62.8761 37.3164 62.7574 37.7348L62.4275 38.8449H63.6679L63.3545 37.7447Z" fill="white"/>
<path d="M71.8061 34.6152C71.9776 34.6152 72.0568 34.6745 72.0568 34.8524V35.4783C72.0568 35.6562 71.9776 35.7254 71.8061 35.7254H70.3942V41.1113C70.3942 41.2892 70.3348 41.3683 70.1567 41.3683H69.2759C69.0977 41.3683 69.0285 41.2892 69.0285 41.1113V35.7254H67.6264C67.4483 35.7254 67.379 35.6562 67.379 35.4783V34.8524C67.379 34.6745 67.4483 34.6152 67.6264 34.6152H71.8061Z" fill="white"/>
<path d="M76.2035 38.7955V41.1014C76.2035 41.2793 76.1441 41.3584 75.9627 41.3584H75.0984C74.9202 41.3584 74.8608 41.2793 74.8608 41.1014V34.8722C74.8608 34.6943 74.9202 34.6152 75.0984 34.6152H77.1931C78.9943 34.6152 79.6013 35.3992 79.6013 36.2327V37.1781C79.6043 37.5032 79.499 37.8201 79.3019 38.0789C79.1048 38.3377 78.8272 38.5238 78.5127 38.6078L79.5881 41.1113C79.6574 41.2695 79.5386 41.3683 79.3605 41.3683H78.483C78.3444 41.3683 78.3048 41.2695 78.2356 41.1113L77.2459 38.8054H76.2035V38.7955ZM76.2035 35.7254V37.7019H77.1931C77.8529 37.7019 78.2686 37.4515 78.2686 36.9541V36.4896C78.2686 35.9922 77.8595 35.7418 77.1931 35.7418L76.2035 35.7254Z" fill="white"/>
<path d="M84.1603 41.1113C84.1603 41.2892 84.1009 41.3683 83.9195 41.3683H83.0552C82.8771 41.3683 82.8177 41.2892 82.8177 41.1113V34.8722C82.8177 34.6943 82.8771 34.6152 83.0552 34.6152H83.9195C84.1009 34.6152 84.1603 34.6943 84.1603 34.8722V41.1113Z" fill="white"/>
<path d="M93.5686 41.1212C93.5686 41.2892 93.5092 41.3683 93.3311 41.3683H92.5031C92.3249 41.3683 92.2655 41.2892 92.2655 41.1212V37.3461C92.2655 37.3757 92.0775 37.9819 91.9785 38.2487L91.2198 40.0967C91.2017 40.1698 91.1592 40.2345 91.0991 40.2801C91.0391 40.3256 90.9653 40.3493 90.8899 40.3471H90.184C90.1086 40.3493 90.0348 40.3256 89.9747 40.2801C89.9147 40.2345 89.8721 40.1698 89.8541 40.0967L89.0096 38.1005C88.9123 37.8627 88.8361 37.6169 88.782 37.3659V41.1212C88.782 41.2892 88.7226 41.3683 88.5411 41.3683H87.756C87.5779 41.3683 87.5185 41.2892 87.5185 41.1212V34.8623C87.5185 34.6943 87.5779 34.6152 87.756 34.6152H88.5411C88.5883 34.6096 88.6359 34.6203 88.6761 34.6455C88.7163 34.6706 88.7467 34.7088 88.7622 34.7536L90.2961 38.2125C90.4149 38.4826 90.5435 38.9075 90.5435 38.9075C90.5435 38.9075 90.6722 38.5221 90.8042 38.2223L92.2754 34.7272C92.315 34.6383 92.3843 34.6086 92.5031 34.6086H93.3311C93.5092 34.6086 93.5686 34.6877 93.5686 34.8557V41.1212Z" fill="white"/>
<path d="M96.8278 36.1536C96.8278 35.3201 97.4447 34.5361 99.2459 34.5361C101.047 34.5361 101.664 35.3201 101.664 36.1536V39.8299C101.664 40.6633 101.047 41.4473 99.2459 41.4473C97.4447 41.4473 96.8278 40.6633 96.8278 39.8299V36.1536ZM100.321 36.394C100.321 35.8966 99.9123 35.6463 99.2459 35.6463C98.5795 35.6463 98.1837 35.8966 98.1837 36.394V39.5927C98.1837 40.0868 98.5795 40.3372 99.2459 40.3372C99.9123 40.3372 100.321 40.0868 100.321 39.5927V36.394Z" fill="white"/>
<path d="M106.289 41.1113C106.289 41.2892 106.23 41.3683 106.048 41.3683H105.184C105.006 41.3683 104.946 41.2892 104.946 41.1113V34.8722C104.946 34.6943 105.006 34.6152 105.184 34.6152H106.048C106.23 34.6152 106.289 34.6943 106.289 34.8722V41.1113Z" fill="white"/>
<path d="M114.493 41.1212C114.493 41.2892 114.434 41.3682 114.256 41.3682H113.48C113.349 41.3682 113.299 41.3386 113.25 41.2496L111.33 37.9555C111.173 37.7003 111.041 37.4312 110.934 37.1517V41.1047C110.934 41.2727 110.874 41.3518 110.693 41.3518H109.908C109.73 41.3518 109.67 41.2727 109.67 41.1047V34.8458C109.67 34.6778 109.73 34.5987 109.908 34.5987H110.693C110.734 34.5926 110.776 34.5988 110.813 34.6164C110.851 34.6339 110.882 34.6622 110.904 34.6975L112.903 38.1235C113.026 38.349 113.136 38.5811 113.233 38.8185V34.8622C113.233 34.6942 113.292 34.6152 113.474 34.6152H114.259C114.437 34.6152 114.496 34.6942 114.496 34.8622L114.493 41.1212Z" fill="white"/>
<path d="M118.099 41.3683C117.921 41.3683 117.861 41.2892 117.861 41.1113V34.8722C117.861 34.6943 117.921 34.6152 118.099 34.6152H121.503C121.672 34.6152 121.751 34.6745 121.751 34.8524V35.4783C121.751 35.6562 121.672 35.7254 121.503 35.7254H119.194V37.3362H121.322C121.503 37.3362 121.582 37.3955 121.582 37.5734V38.1696C121.582 38.3409 121.503 38.4101 121.322 38.4101H119.194V40.2581H121.592C121.77 40.2581 121.84 40.3174 121.84 40.4953V41.1212C121.84 41.2991 121.77 41.3683 121.592 41.3683H118.099Z" fill="white"/>
<path d="M31.5635 11.8591C32.7443 12.99 33.8589 14.1877 34.9019 15.4465C37.3134 14.7846 39.8036 14.4521 42.3045 14.4582H44.5345V10.0078H42.3111C38.6491 10.0086 35.0141 10.6347 31.5635 11.8591V11.8591Z" fill="#E6362D"/>
<path d="M22.264 16.9882C23.4433 17.9228 24.5565 18.9376 25.5958 20.0254C27.114 18.8832 28.7456 17.8997 30.4649 17.0903C29.4201 15.9278 28.3076 14.8279 27.1331 13.7961C25.4167 14.711 23.787 15.7794 22.264 16.9882V16.9882Z" fill="#E6362D"/>
<path d="M15.4816 24.3276C16.6815 25.2281 17.7868 26.2479 18.7804 27.3714C19.7902 25.792 20.9574 24.3186 22.264 22.9737C21.2342 21.9034 20.12 20.9175 18.9322 20.0254C17.6616 21.3589 16.5072 22.7982 15.4816 24.3276V24.3276Z" fill="#E6362D"/>
<path d="M10.0186 42.2446V44.4714H14.4688V42.2512C14.4634 38.6164 15.1764 35.0163 16.5669 31.6571C15.6174 30.3656 14.5003 29.2058 13.2449 28.2081C11.1155 32.5814 10.0122 37.3818 10.0186 42.2446V42.2446Z" fill="#E6362D"/>
<path d="M13.2449 28.208C14.5003 29.2057 15.6174 30.3655 16.5668 31.657C17.1818 30.1665 17.928 28.7334 18.7968 27.3746C17.8032 26.2512 16.6979 25.2313 15.498 24.3308C14.6555 25.568 13.9025 26.8637 13.2449 28.208V28.208Z" fill="#E6362D"/>
<path d="M38.3327 20.2559C39.1555 21.6 39.9043 22.9878 40.5759 24.4132C41.1963 24.3497 41.8195 24.3178 42.4431 24.3176H44.5345V19.8771H42.4464C41.0663 19.8752 39.6891 20.0021 38.3327 20.2559Z" fill="#E6362D"/>
<path d="M29.0464 24.3276C29.8834 25.5664 30.6309 26.8632 31.2831 28.2082C32.7486 27.0429 34.3883 26.1147 36.1423 25.4575C35.4747 24.1169 34.7267 22.8177 33.9023 21.5671C32.1749 22.2819 30.5437 23.2092 29.0464 24.3276V24.3276Z" fill="#E6362D"/>
<path d="M25.7311 27.3713C26.5999 28.7301 27.3462 30.1632 27.9611 31.6537C28.9108 30.3634 30.0278 29.2047 31.283 28.208C30.6308 26.8631 29.8834 25.5663 29.0464 24.3275C27.8408 25.2272 26.7299 26.247 25.7311 27.3713Z" fill="#E6362D"/>
<path d="M20.0406 42.2445V44.4714H24.4875V42.2511C24.4834 38.44 25.7007 34.7277 27.9611 31.6571C27.3462 30.1665 26.5999 28.7334 25.7311 27.3746C22.0614 31.4613 20.0346 36.7588 20.0406 42.2478V42.2445Z" fill="#E6362D"/>
<path d="M22.2607 5.05C23.7941 5.87564 25.2748 6.79537 26.6943 7.80393C31.5975 5.58244 36.9203 4.4356 42.3045 4.44058H44.5345V4.68495e-05H42.3111C35.3107 -0.010397 28.4187 1.72546 22.2607 5.05V5.05Z" fill="#E6362D"/>
<path d="M12.9612 11.8591C14.4872 12.3956 15.9694 13.0487 17.3949 13.8125C18.9192 12.4777 20.5474 11.266 22.264 10.1889C20.8402 9.29943 19.3591 8.5049 17.8303 7.81055C16.1084 9.03687 14.4809 10.3902 12.9612 11.8591V11.8591Z" fill="#E6362D"/>
<path d="M9.6228 15.4465C11.1477 15.8665 12.6333 16.4176 14.0631 17.0936C15.107 15.9303 16.2196 14.8303 17.3949 13.7994C15.969 13.0401 14.4868 12.3914 12.9612 11.8591C11.7804 12.99 10.6658 14.1877 9.6228 15.4465V15.4465Z" fill="#E6362D"/>
<path d="M6.19531 20.2559C7.71386 20.5405 9.19863 20.9821 10.6257 21.5736C11.6591 19.9965 12.808 18.4979 14.0631 17.0902C12.6334 16.4142 11.1477 15.8632 9.62282 15.4431C8.37141 16.9672 7.22622 18.5752 6.19531 20.2559V20.2559Z" fill="#E6362D"/>
<path d="M7.9969e-05 42.2445V44.4714H4.44693V42.2511C4.43819 36.4219 5.78662 30.6704 8.38576 25.4509C6.96094 24.9162 5.47295 24.5674 3.9587 24.4132C1.3457 29.9952 -0.00577359 36.0828 7.9969e-05 42.2445V42.2445Z" fill="#E6362D"/>
<path d="M27.1331 13.7961C28.3076 14.8278 29.4201 15.9278 30.465 17.0903C31.8935 16.4144 33.3781 15.8633 34.9019 15.4432C33.8588 14.1856 32.7442 12.9889 31.5635 11.8591C30.0397 12.3917 28.5586 13.0393 27.1331 13.7961V13.7961Z" fill="#E6362D"/>
<path d="M18.9321 20.0254C20.12 20.9175 21.2342 21.9034 22.264 22.9737C23.2938 21.9034 24.4079 20.9175 25.5958 20.0254C24.5565 18.9376 23.4433 17.9228 22.264 16.9882C21.0847 17.9228 19.9714 18.9376 18.9321 20.0254V20.0254Z" fill="#602483"/>
<path d="M27.9611 31.657C29.3507 35.0141 30.0637 38.6119 30.0591 42.2445V44.4713H34.5093V42.251C34.5157 37.3882 33.4124 32.5879 31.283 28.2146C30.028 29.2102 28.9109 30.3678 27.9611 31.657V31.657Z" fill="#602483"/>
<path d="M22.264 22.9737C23.5649 24.3194 24.7265 25.7928 25.7311 27.3714C26.7247 26.2479 27.83 25.2281 29.0299 24.3276C28.0095 22.7988 26.8607 21.3596 25.5958 20.0254C24.408 20.9175 23.2938 21.9034 22.264 22.9737V22.9737Z" fill="#602483"/>
<path d="M14.063 17.0903C15.7824 17.8997 17.414 18.8832 18.9321 20.0254C19.9714 18.9376 21.0847 17.9228 22.264 16.9882C20.7409 15.7794 19.1112 14.711 17.3949 13.7961C16.2196 14.827 15.107 15.927 14.063 17.0903V17.0903Z" fill="#602483"/>
<path d="M6.10352e-05 10.0078V14.4483H2.22349C4.72332 14.4422 7.21245 14.7747 9.6228 15.4366C10.6661 14.1812 11.7807 12.9868 12.9612 11.8591C9.51379 10.6355 5.88223 10.0094 2.22349 10.0078H6.10352e-05Z" fill="#602483"/>
<path d="M8.38574 25.4575C10.1397 26.1147 11.7795 27.0429 13.2449 28.2082C13.8971 26.8632 14.6446 25.5664 15.4816 24.3276C13.9843 23.2092 12.3531 22.2819 10.6257 21.5671C9.80129 22.8177 9.05329 24.1169 8.38574 25.4575V25.4575Z" fill="#602483"/>
<path d="M6.10352e-05 19.8772V24.3177H2.08823C2.71184 24.3179 3.33502 24.3498 3.95538 24.4133C4.62462 22.9873 5.3724 21.5994 6.1953 20.256C4.84104 20.0026 3.46607 19.8758 2.08823 19.8772H6.10352e-05Z" fill="#602483"/>
<path d="M3.95868 24.4132C5.47435 24.5693 6.96346 24.9203 8.38903 25.4575C9.05659 24.1168 9.80459 22.8177 10.629 21.5671C9.20191 20.9756 7.71714 20.534 6.1986 20.2494C5.37549 21.5949 4.6277 22.985 3.95868 24.4132V24.4132Z" fill="#602483"/>
<path d="M17.8303 7.80397C19.3591 8.49833 20.8402 9.29286 22.264 10.1824C23.6874 9.29412 25.1673 8.49964 26.6943 7.80397C25.2748 6.79542 23.7941 5.87568 22.2607 5.05005C20.7283 5.8757 19.2487 6.79544 17.8303 7.80397V7.80397Z" fill="#602483"/>
<path d="M33.9023 21.5671C34.7267 22.8177 35.4747 24.1168 36.1423 25.4575C37.5689 24.92 39.0591 24.569 40.5759 24.4132C39.9054 22.9879 39.1576 21.6001 38.336 20.256C36.8166 20.5383 35.3307 20.9777 33.9023 21.5671V21.5671Z" fill="#602483"/>
<path d="M40.5759 24.4132C39.0603 24.5693 37.5711 24.9202 36.1456 25.4575C38.7447 30.677 40.0931 36.4285 40.0844 42.2577V44.4714H44.5345V42.2511C44.5414 36.0872 43.1899 29.9972 40.5759 24.4132V24.4132Z" fill="#602483"/>
<path d="M30.465 17.0903C31.7197 18.4959 32.8687 19.9923 33.9024 21.5671C35.3294 20.9757 36.8142 20.5341 38.3327 20.2494C37.3017 18.5691 36.1553 16.9621 34.9019 15.4399C33.378 15.8611 31.8935 16.4133 30.465 17.0903V17.0903Z" fill="#602483"/>
<path d="M22.264 10.1823C23.9806 11.2594 25.6088 12.4711 27.1331 13.8059C28.5583 13.0457 30.0393 12.3949 31.5634 11.8591C30.044 10.3879 28.4165 9.03239 26.6943 7.80396C25.1673 8.49962 23.6874 9.29411 22.264 10.1823V10.1823Z" fill="#602483"/>
<path d="M6.10352e-05 3.4397e-05V4.44057H2.22349C7.60661 4.43585 12.9283 5.58269 17.8303 7.80392C19.2487 6.79538 20.7283 5.87564 22.2607 5.04999C16.1069 1.72692 9.21944 -0.00891066 2.22349 3.4397e-05H6.10352e-05Z" fill="#602483"/>
<path d="M18.8035 27.3713C17.9347 28.7301 17.1884 30.1632 16.5735 31.6538C18.8326 34.7226 20.0498 38.4324 20.0472 42.2412V44.4714H24.4874V42.2511C24.4919 38.8877 23.7316 35.5672 22.264 32.5399C21.3578 30.6641 20.193 28.9244 18.8035 27.3713V27.3713Z" fill="#602483"/>
<path d="M0.953428 56.762H3.43746C3.56282 56.762 3.6222 56.8048 3.6222 56.9629V57.4801C3.6222 57.6382 3.56282 57.6942 3.43746 57.6942H0.155107C0.0495438 57.6942 6.10352e-05 57.6152 6.10352e-05 57.4669V50.2824C6.10352e-05 50.1242 0.0495438 50.0551 0.184797 50.0551H0.778589C0.903946 50.0551 0.953428 50.1242 0.953428 50.2824V56.762Z" fill="#602483"/>
<path d="M8.1581 54.9402C8.1581 55.0753 8.10862 55.1445 7.99316 55.1445H5.35408V56.1756C5.35408 56.6367 5.54871 56.9299 6.32394 56.9299C7.09917 56.9299 7.2971 56.6367 7.2971 56.1756V56.0537C7.2971 55.9087 7.34328 55.8395 7.48184 55.8395H7.97666C8.10202 55.8395 8.1614 55.9087 8.1614 56.0537V56.2447C8.1614 57.1638 7.68307 57.7831 6.30415 57.7831C4.92523 57.7831 4.4502 57.1638 4.4502 56.2447V53.5732C4.4502 52.6508 4.94502 52.0315 6.32394 52.0315C7.70286 52.0315 8.1614 52.6508 8.1614 53.5732L8.1581 54.9402ZM5.35078 54.3539H7.2938V53.6456C7.2938 53.1976 7.04969 52.8946 6.32064 52.8946C5.5916 52.8946 5.35078 53.1976 5.35078 53.6456V54.3539Z" fill="#602483"/>
<path d="M11.9056 53.415C11.9056 53.0099 11.5757 52.8188 10.9819 52.8188C10.3881 52.8188 10.0813 53.0099 10.0813 53.415V53.6061C10.0874 53.7231 10.1297 53.8354 10.2024 53.9275C10.275 54.0195 10.3745 54.0868 10.487 54.12L11.9451 54.7064C12.4796 54.9205 12.8193 55.2795 12.8193 55.8066V56.4358C12.8193 57.1309 12.2849 57.7831 10.972 57.7831C9.65903 57.7831 9.13782 57.1243 9.13782 56.4358V56.1558C9.13782 56.0207 9.1873 55.9516 9.30276 55.9516H9.81738C9.94274 55.9516 9.98232 56.0207 9.98232 56.1558V56.3897C9.98232 56.7949 10.3518 56.9859 10.972 56.9859C11.5922 56.9859 11.9616 56.7949 11.9616 56.3897V56.0866C11.9616 55.8165 11.767 55.6715 11.447 55.5464L9.98892 54.9633C9.76829 54.8658 9.58022 54.7073 9.44693 54.5065C9.31365 54.3057 9.24072 54.071 9.23678 53.8301V53.415C9.23678 52.7167 9.68213 52.0315 10.9918 52.0315C12.3014 52.0315 12.7501 52.7167 12.7501 53.415V53.695C12.7501 53.84 12.7105 53.896 12.5752 53.896H12.0705C11.955 53.896 11.9056 53.84 11.9056 53.695V53.415Z" fill="#602483"/>
<path d="M15.917 53.5501C15.917 52.6508 16.4217 52.0315 17.7511 52.0315C19.0806 52.0315 19.5853 52.6508 19.5853 53.5501V57.4669C19.5853 57.625 19.5391 57.6942 19.4105 57.6942H18.9057C18.7705 57.6942 18.7309 57.625 18.721 57.4669V57.1375C18.3016 57.5464 17.7402 57.7777 17.1541 57.7831C16.972 57.7941 16.7896 57.7665 16.619 57.7021C16.4484 57.6377 16.2933 57.5379 16.164 57.4094C16.0347 57.2809 15.9341 57.1266 15.8688 56.9565C15.8035 56.7864 15.7749 56.6045 15.785 56.4226V55.8857C15.7725 55.7046 15.7988 55.523 15.8622 55.3529C15.9256 55.1828 16.0246 55.0282 16.1526 54.8994C16.2807 54.7706 16.4348 54.6706 16.6046 54.6061C16.7745 54.5415 16.9562 54.514 17.1376 54.5252H18.6715V53.6621C18.6715 53.2009 18.467 52.8979 17.7281 52.8979C16.9891 52.8979 16.7681 53.168 16.7681 53.6259V53.7181C16.7681 53.8762 16.7186 53.9421 16.5834 53.9421H16.0918C15.9632 53.9421 15.917 53.8762 15.917 53.7181V53.5501ZM18.6847 56.3304V55.3421H17.3421C16.8572 55.3421 16.7021 55.5925 16.7021 56.0273V56.2546C16.7021 56.6927 16.9165 56.8838 17.4015 56.8838C17.882 56.8595 18.3376 56.663 18.6847 56.3304V56.3304Z" fill="#602483"/>
<path d="M23.5307 52.2456V52.7628C23.5307 52.9209 23.4614 52.9769 23.3361 52.9868C22.7684 53.0443 22.2375 53.2943 21.8318 53.6951V57.457C21.8318 57.6151 21.7823 57.6843 21.657 57.6843H21.0929C20.9576 57.6843 20.9081 57.6151 20.9081 57.457V52.3346C20.9081 52.1896 20.9576 52.1237 21.0929 52.1237H21.6075C21.7427 52.1237 21.7823 52.1896 21.7922 52.3346L21.8219 52.8188C22.0068 52.5923 22.2369 52.4067 22.4976 52.274C22.7583 52.1413 23.0439 52.0643 23.3361 52.048C23.4614 52.048 23.5307 52.1007 23.5307 52.2456Z" fill="#602483"/>
<path d="M26.5294 52.1468C26.6547 52.1468 26.7141 52.2028 26.7141 52.3477V52.7957C26.7141 52.9538 26.6547 53.0197 26.5294 53.0197H25.5397V56.0405C25.5397 56.5148 25.7937 56.7816 26.5294 56.7816H26.7141C26.8395 56.7816 26.8989 56.8508 26.8989 57.0089V57.48C26.8989 57.6381 26.8395 57.6941 26.7141 57.6941H26.3908C25.0218 57.6941 24.6128 57.144 24.6128 56.1558V53.0362H24.0816C23.9431 53.0362 23.8969 52.9703 23.8969 52.8122V52.4202C23.8969 52.2752 23.9431 52.2192 24.0816 52.206L24.5567 52.1632H24.6128V51.0267C24.6128 50.8686 24.6721 50.8027 24.7975 50.8027H25.3715C25.4969 50.8027 25.5463 50.8686 25.5463 51.0267V52.1632L26.5294 52.1468Z" fill="#602483"/>
<path d="M28.7264 51.0794C28.7264 51.2244 28.6769 51.2903 28.5516 51.2903H27.9875C27.8522 51.2903 27.8027 51.2244 27.8027 51.0794V50.0714C27.8027 49.9133 27.8522 49.8474 27.9875 49.8474H28.5516C28.6769 49.8474 28.7264 49.9133 28.7264 50.0714V51.0794ZM28.7264 57.4668C28.7264 57.6249 28.6769 57.6941 28.5516 57.6941H27.9875C27.8522 57.6941 27.8027 57.6249 27.8027 57.4668V52.3477C27.8027 52.1896 27.8522 52.1237 27.9875 52.1237H28.5516C28.6769 52.1237 28.7264 52.1896 28.7264 52.3477V57.4668Z" fill="#602483"/>
<path d="M32.6587 53.415C32.6587 53.0099 32.3288 52.8188 31.735 52.8188C31.1412 52.8188 30.8311 53.0099 30.8311 53.415V53.6061C30.8379 53.7234 30.8809 53.8358 30.9541 53.9278C31.0273 54.0198 31.1272 54.0869 31.2402 54.12L32.6983 54.7064C33.2294 54.9205 33.5691 55.2795 33.5691 55.8066V56.4358C33.5691 57.1309 33.038 57.7831 31.7251 57.7831C30.4121 57.7831 29.8909 57.1243 29.8909 56.4358V56.1558C29.8909 56.0207 29.9404 55.9516 30.0559 55.9516H30.5705C30.6958 55.9516 30.7354 56.0207 30.7354 56.1558V56.3897C30.7354 56.7949 31.1049 56.9859 31.7251 56.9859C32.3453 56.9859 32.7147 56.7949 32.7147 56.3897V56.0866C32.7147 55.8165 32.5234 55.6715 32.2001 55.5464L30.7453 54.9633C30.5237 54.8665 30.3345 54.7083 30.2 54.5075C30.0656 54.3067 29.9915 54.0716 29.9866 53.8301V53.415C29.9866 52.7167 30.4352 52.0315 31.7449 52.0315C33.0545 52.0315 33.5032 52.7167 33.5032 53.415V53.695C33.5032 53.84 33.4636 53.896 33.3283 53.896H32.8137C32.695 53.896 32.6488 53.84 32.6488 53.695L32.6587 53.415Z" fill="#602483"/>
<path d="M34.6083 53.5501C34.6083 52.6508 35.1163 52.0315 36.4458 52.0315C37.7752 52.0315 38.2799 52.6508 38.2799 53.5501V57.4669C38.2799 57.625 38.2304 57.6942 38.1051 57.6942H37.607C37.4717 57.6942 37.4321 57.625 37.4222 57.4669L37.4024 57.1374C36.9912 57.5376 36.4426 57.7662 35.8685 57.7765C35.6863 57.788 35.5037 57.7607 35.3328 57.6965C35.1619 57.6323 35.0066 57.5326 34.8772 57.404C34.7478 57.2754 34.6472 57.1208 34.5821 56.9505C34.517 56.7802 34.4888 56.598 34.4994 56.416V55.8791C34.4869 55.6983 34.5131 55.517 34.5763 55.3471C34.6395 55.1773 34.7383 55.0229 34.8659 54.8941C34.9936 54.7654 35.1473 54.6653 35.3168 54.6006C35.4862 54.5358 35.6675 54.5079 35.8487 54.5186H37.3826V53.6621C37.3826 53.2009 37.1814 52.8979 36.4425 52.8979C35.7035 52.8979 35.4792 53.168 35.4792 53.6259V53.7181C35.4792 53.8762 35.433 53.9421 35.2945 53.9421H34.7897C34.6644 53.9421 34.6149 53.8762 34.6149 53.7181L34.6083 53.5501ZM37.376 56.3304V55.3421H36.0367C35.5518 55.3421 35.3967 55.5925 35.3967 56.0273V56.2546C35.3967 56.6927 35.6111 56.8838 36.0961 56.8838C36.5758 56.8605 37.0308 56.6638 37.376 56.3304V56.3304Z" fill="#602483"/>
<path d="M40.3021 52.1238C40.4373 52.1238 40.4769 52.1897 40.4868 52.3346V52.697C40.699 52.4864 40.9507 52.3198 41.2275 52.2068C41.5044 52.0937 41.8009 52.0364 42.1 52.0381C43.0038 52.0381 43.469 52.6442 43.469 53.4777V57.4735C43.469 57.6316 43.4195 57.7008 43.2941 57.7008H42.73C42.6047 57.7008 42.5453 57.6316 42.5453 57.4735V53.728C42.5453 53.2668 42.3639 52.9868 41.8295 52.9868C41.335 53.0137 40.8667 53.2172 40.5099 53.56V57.4669C40.5099 57.625 40.4637 57.6942 40.3351 57.6942H39.7743C39.6357 57.6942 39.5895 57.625 39.5895 57.4669V52.3346C39.5895 52.1897 39.6357 52.1238 39.7743 52.1238H40.3021Z" fill="#602483"/>
<path d="M47.3517 53.415C47.3517 53.0099 47.0218 52.8188 46.428 52.8188C45.8343 52.8188 45.5242 53.0099 45.5242 53.415V53.6061C45.531 53.7234 45.5739 53.8358 45.6471 53.9278C45.7204 54.0198 45.8203 54.0869 45.9332 54.12L47.388 54.7064C47.9224 54.9205 48.2622 55.2795 48.2622 55.8066V56.4358C48.2622 57.1309 47.7278 57.7831 46.4181 57.7831C45.1085 57.7831 44.584 57.1243 44.584 56.4358V56.1558C44.584 56.0207 44.6302 55.9516 44.7489 55.9516H45.2636C45.3889 55.9516 45.4285 56.0207 45.4285 56.1558V56.3897C45.4285 56.7949 45.798 56.9859 46.4181 56.9859C47.0383 56.9859 47.4078 56.7949 47.4078 56.3897V56.0866C47.4078 55.8165 47.2132 55.6715 46.8932 55.5464L45.4384 54.9633C45.2168 54.8665 45.0275 54.7083 44.8931 54.5075C44.7586 54.3067 44.6846 54.0716 44.6797 53.8301V53.415C44.6797 52.7167 45.1283 52.0315 46.4379 52.0315C47.7476 52.0315 48.1962 52.7167 48.1962 53.415V53.695C48.1962 53.84 48.1566 53.896 48.0214 53.896H47.5035C47.3847 53.896 47.3385 53.84 47.3385 53.695L47.3517 53.415Z" fill="#602483"/>
<path d="M54.276 57.1308C53.8404 57.5452 53.2645 57.7805 52.6629 57.7896C51.7194 57.7896 51.2939 57.1835 51.2939 56.2612V53.5665C51.2939 52.6442 51.7194 52.038 52.6629 52.038C53.2574 52.0531 53.8251 52.2878 54.2562 52.6969V50.0714C54.2562 49.9133 54.2925 49.8474 54.4311 49.8474H54.9919C55.1304 49.8474 55.1766 49.9133 55.1766 50.0714V57.4701C55.1766 57.6282 55.1304 57.6974 54.9919 57.6974H54.4773C54.342 57.6974 54.3024 57.6282 54.2925 57.4701L54.276 57.1308ZM52.2143 56.0866C52.203 56.1842 52.2137 56.2831 52.2457 56.376C52.2776 56.469 52.33 56.5536 52.3989 56.6237C52.4679 56.6938 52.5517 56.7477 52.6441 56.7813C52.7366 56.8149 52.8355 56.8274 52.9334 56.8179C53.4259 56.7827 53.8915 56.5805 54.2529 56.2447V53.583C53.8963 53.2385 53.4286 53.0318 52.9334 52.9999C52.8358 52.9905 52.7373 53.003 52.645 53.0364C52.5528 53.0698 52.4692 53.1233 52.4003 53.193C52.3315 53.2628 52.279 53.347 52.2468 53.4395C52.2146 53.532 52.2035 53.6306 52.2143 53.7279V56.0866Z" fill="#602483"/>
<path d="M59.4222 57.1441C59.2191 57.3488 58.977 57.5109 58.7101 57.6206C58.4432 57.7304 58.1571 57.7857 57.8685 57.7832C56.9745 57.7832 56.4995 57.1869 56.4995 56.3568V52.3478C56.4995 52.1897 56.5456 52.1238 56.6743 52.1238H57.2351C57.3637 52.1238 57.4198 52.1897 57.4198 52.3478V56.0867C57.4198 56.5577 57.6046 56.8279 58.139 56.8279C58.6159 56.8075 59.0674 56.6074 59.4024 56.2678V52.3478C59.4024 52.1897 59.4519 52.1238 59.5773 52.1238H60.148C60.2766 52.1238 60.3228 52.1897 60.3228 52.3478V57.4801C60.3228 57.6382 60.2766 57.6942 60.148 57.6942H59.6268C59.4882 57.6942 59.4519 57.6382 59.442 57.4801L59.4222 57.1441Z" fill="#602483"/>
<path d="M64.453 52.1237C64.5882 52.1237 64.6278 52.1896 64.6377 52.3477L64.6575 52.7068C65.0907 52.2887 65.6682 52.0529 66.2706 52.048C67.2141 52.048 67.6396 52.6541 67.6396 53.5765V56.2711C67.6396 57.1935 67.2141 57.7996 66.2706 57.7996C65.6797 57.7948 65.1117 57.5705 64.6773 57.1704V59.786C64.6773 59.9342 64.6311 60.0001 64.5024 60.0001H63.9416C63.8031 60.0001 63.7569 59.9342 63.7569 59.786V52.3477C63.7569 52.1896 63.8031 52.1237 63.9416 52.1237H64.453ZM66.7127 53.728C66.7233 53.6309 66.7123 53.5327 66.6803 53.4404C66.6483 53.3482 66.5961 53.2642 66.5276 53.1945C66.4591 53.1248 66.3759 53.0712 66.2841 53.0376C66.1923 53.0039 66.0942 52.9911 65.9968 53C65.5006 53.0275 65.0314 53.2348 64.6773 53.5831V56.2447C65.0362 56.5844 65.5033 56.7873 65.9968 56.8179C66.0945 56.8269 66.193 56.814 66.285 56.7802C66.3771 56.7463 66.4605 56.6924 66.529 56.6224C66.5976 56.5523 66.6497 56.4679 66.6814 56.3752C66.7132 56.2825 66.7239 56.1839 66.7127 56.0866V53.728Z" fill="#602483"/>
<path d="M68.8701 53.5501C68.8701 52.6508 69.3748 52.0315 70.7043 52.0315C72.0337 52.0315 72.5417 52.6508 72.5417 53.5501V57.4669C72.5417 57.625 72.4922 57.6942 72.3669 57.6942H71.8622C71.7236 57.6942 71.6873 57.625 71.6774 57.4669L71.6576 57.1374C71.2458 57.5368 70.6976 57.7652 70.1237 57.7765C69.9415 57.788 69.7589 57.7607 69.588 57.6965C69.4171 57.6323 69.2619 57.5326 69.1324 57.404C69.003 57.2754 68.9024 57.1208 68.8373 56.9505C68.7722 56.7802 68.744 56.598 68.7546 56.416V55.8791C68.7416 55.6982 68.7674 55.5166 68.8304 55.3465C68.8934 55.1765 68.9921 55.0218 69.1199 54.8929C69.2477 54.7641 69.4016 54.664 69.5713 54.5994C69.741 54.5349 69.9226 54.5073 70.1039 54.5186H71.6378V53.6621C71.6378 53.2009 71.4333 52.8979 70.6944 52.8979C69.9554 52.8979 69.7344 53.168 69.7344 53.6259V53.7181C69.7344 53.8762 69.6849 53.9421 69.5497 53.9421H69.0449C68.9196 53.9421 68.8701 53.8762 68.8701 53.7181V53.5501ZM71.6378 56.3238V55.3421H70.2985C69.8136 55.3421 69.6585 55.5925 69.6585 56.0273V56.2546C69.6585 56.6927 69.8697 56.8838 70.3546 56.8838C70.8351 56.8595 71.2907 56.663 71.6378 56.3304V56.3238Z" fill="#602483"/>
<path d="M76.0253 52.1468C76.154 52.1468 76.2101 52.2028 76.2101 52.3477V52.7957C76.2101 52.9538 76.154 53.0197 76.0253 53.0197H75.0357V56.0405C75.0357 56.5148 75.2897 56.7816 76.0253 56.7816H76.2035C76.3288 56.7816 76.3849 56.8508 76.3849 57.0089V57.48C76.3849 57.6381 76.3288 57.6941 76.2035 57.6941H75.8736C74.5045 57.6941 74.0988 57.144 74.0988 56.1558V53.0362H73.5644C73.4291 53.0362 73.3796 52.9703 73.3796 52.8122V52.4202C73.3796 52.2752 73.4291 52.2192 73.5644 52.206L74.0394 52.1632H74.0988V51.0267C74.0988 50.8686 74.1549 50.8027 74.2835 50.8027H74.8542C74.9829 50.8027 75.0291 50.8686 75.0291 51.0267V52.1632L76.0253 52.1468Z" fill="#602483"/>
<path d="M79.9213 52.2456V52.7628C79.9213 52.9209 79.852 52.9769 79.7267 52.9868C79.1577 53.047 78.6266 53.3005 78.2224 53.7049V57.4669C78.2224 57.625 78.1729 57.6942 78.0475 57.6942H77.4834C77.3482 57.6942 77.2987 57.625 77.2987 57.4669V52.3346C77.2987 52.1896 77.3482 52.1237 77.4834 52.1237H77.9981C78.1333 52.1237 78.1729 52.1896 78.1828 52.3346L78.2125 52.8188C78.3958 52.5892 78.6253 52.4006 78.8861 52.265C79.1468 52.1294 79.4332 52.0498 79.7267 52.0315C79.852 52.048 79.9213 52.1007 79.9213 52.2456Z" fill="#602483"/>
<path d="M81.6796 51.0794C81.6796 51.2244 81.6301 51.2903 81.5048 51.2903H80.9407C80.8054 51.2903 80.7559 51.2244 80.7559 51.0794V50.0714C80.7559 49.9133 80.8054 49.8474 80.9407 49.8474H81.5048C81.6301 49.8474 81.6796 49.9133 81.6796 50.0714V51.0794ZM81.6796 57.4668C81.6796 57.6249 81.6301 57.6941 81.5048 57.6941H80.9407C80.8054 57.6941 80.7559 57.6249 80.7559 57.4668V52.3477C80.7559 52.1896 80.8054 52.1237 80.9407 52.1237H81.5048C81.6301 52.1237 81.6796 52.1896 81.6796 52.3477V57.4668Z" fill="#602483"/>
<path d="M83.7578 52.1236C83.8931 52.1236 83.9327 52.1895 83.9426 52.3345L83.9624 52.6968C84.1618 52.4867 84.4023 52.3199 84.669 52.2065C84.9358 52.0932 85.223 52.0358 85.5128 52.038C85.7741 52.0197 86.0345 52.0835 86.2576 52.2206C86.4807 52.3577 86.6551 52.5611 86.7565 52.8022C86.9621 52.5661 87.2153 52.376 87.4995 52.2443C87.7838 52.1126 88.0926 52.0423 88.4059 52.038C89.3065 52.038 89.7848 52.6441 89.7848 53.4775V57.4734C89.7848 57.6315 89.7255 57.7007 89.6001 57.7007H89.069C88.9337 57.7007 88.8744 57.6315 88.8744 57.4734V53.7279C88.8744 53.2667 88.6896 52.9867 88.1552 52.9867C87.915 52.9947 87.6789 53.0507 87.4607 53.1514C87.2426 53.2522 87.0469 53.3955 86.8851 53.5731C86.8885 53.6213 86.8885 53.6698 86.8851 53.718V57.4668C86.8851 57.6249 86.839 57.6941 86.7103 57.6941H86.1495C86.0241 57.6941 85.9648 57.6249 85.9648 57.4668V53.7279C85.9648 53.2667 85.78 52.9867 85.2456 52.9867C84.766 53.0069 84.3129 53.2124 83.9822 53.5599V57.4668C83.9822 57.6249 83.936 57.6941 83.8073 57.6941H83.2465C83.108 57.6941 83.0618 57.6249 83.0618 57.4668V52.3345C83.0618 52.1895 83.108 52.1236 83.2465 52.1236H83.7578Z" fill="#602483"/>
<path d="M91.012 53.5732C91.012 52.6508 91.5827 52.0315 92.9517 52.0315C94.3208 52.0315 94.8948 52.6508 94.8948 53.5732V56.2447C94.8948 57.1638 94.3208 57.7831 92.9517 57.7831C91.5827 57.7831 91.012 57.1638 91.012 56.2447V53.5732ZM93.981 53.6621C93.981 53.1779 93.6907 52.9077 92.9616 52.9077C92.2326 52.9077 91.9423 53.1779 91.9423 53.6621V56.1558C91.9423 56.6367 92.2359 56.9069 92.9616 56.9069C93.6874 56.9069 93.981 56.6367 93.981 56.1558V53.6621Z" fill="#602483"/>
<path d="M97.0885 51.0794C97.0885 51.2244 97.0423 51.2903 96.9136 51.2903H96.3528C96.2176 51.2903 96.1681 51.2244 96.1681 51.0794V50.0714C96.1681 49.9133 96.2176 49.8474 96.3528 49.8474H96.9136C97.0423 49.8474 97.0885 49.9133 97.0885 50.0714V51.0794ZM97.0885 57.4668C97.0885 57.6249 97.0423 57.6941 96.9136 57.6941H96.3528C96.2176 57.6941 96.1681 57.6249 96.1681 57.4668V52.3477C96.1681 52.1896 96.2176 52.1237 96.3528 52.1237H96.9136C97.0423 52.1237 97.0885 52.1896 97.0885 52.3477V57.4668Z" fill="#602483"/>
<path d="M99.1668 52.1238C99.3053 52.1238 99.3416 52.1897 99.3515 52.3346L99.3713 52.697C99.5834 52.4864 99.8352 52.3198 100.112 52.2068C100.389 52.0937 100.685 52.0364 100.984 52.0381C101.888 52.0381 102.353 52.6442 102.353 53.4777V57.4735C102.353 57.6316 102.304 57.7008 102.179 57.7008H101.605C101.479 57.7008 101.42 57.6316 101.42 57.4735V53.728C101.42 53.2668 101.235 52.9868 100.704 52.9868C100.21 53.0137 99.7413 53.2172 99.3845 53.56V57.4669C99.3845 57.625 99.335 57.6942 99.2096 57.6942H98.6455C98.5103 57.6942 98.4641 57.625 98.4641 57.4669V52.3346C98.4641 52.1897 98.5103 52.1238 98.6455 52.1238H99.1668Z" fill="#602483"/>
<path d="M107.275 54.9402C107.275 55.0753 107.229 55.1445 107.11 55.1445H104.471V56.1756C104.471 56.6367 104.666 56.9299 105.441 56.9299C106.216 56.9299 106.411 56.6367 106.411 56.1756V56.0537C106.411 55.9087 106.461 55.8395 106.596 55.8395H107.094C107.219 55.8395 107.275 55.9087 107.275 56.0537V56.2447C107.275 57.1638 106.8 57.7831 105.421 57.7831C104.042 57.7831 103.567 57.1638 103.567 56.2447V53.5732C103.567 52.6508 104.062 52.0315 105.441 52.0315C106.82 52.0315 107.275 52.6508 107.275 53.5732V54.9402ZM104.471 54.3473H106.411V53.639C106.411 53.191 106.17 52.888 105.441 52.888C104.712 52.888 104.471 53.191 104.471 53.639V54.3473Z" fill="#602483"/>
<path d="M110.716 57.6941C110.577 57.6941 110.531 57.6249 110.531 57.4668V50.0714C110.531 49.9133 110.577 49.8474 110.716 49.8474H111.277C111.406 49.8474 111.452 49.9133 111.452 50.0714V52.6771C111.88 52.2642 112.45 52.0288 113.045 52.0183C113.989 52.0183 114.414 52.6244 114.414 53.5468V56.2414C114.414 57.1638 113.989 57.7699 113.045 57.7699C112.443 57.765 111.865 57.5291 111.432 57.111L111.415 57.4405C111.415 57.5986 111.366 57.6678 111.231 57.6678L110.716 57.6941ZM113.49 53.7411C113.501 53.6441 113.49 53.5458 113.458 53.4536C113.426 53.3613 113.374 53.2773 113.305 53.2076C113.237 53.1379 113.154 53.0843 113.062 53.0507C112.97 53.0171 112.872 53.0042 112.775 53.0131C112.278 53.0406 111.809 53.2479 111.455 53.5962V56.2579C111.814 56.5976 112.281 56.8005 112.775 56.831C112.872 56.84 112.971 56.8271 113.063 56.7933C113.155 56.7595 113.238 56.7056 113.307 56.6355C113.375 56.5655 113.427 56.481 113.459 56.3883C113.491 56.2957 113.502 56.1971 113.49 56.0997V53.7411Z" fill="#602483"/>
<path d="M115.648 53.5501C115.648 52.6508 116.153 52.0315 117.482 52.0315C118.811 52.0315 119.319 52.6508 119.319 53.5501V57.4669C119.319 57.625 119.27 57.6942 119.145 57.6942H118.64C118.501 57.6942 118.465 57.625 118.455 57.4669L118.435 57.1375C118.023 57.5362 117.475 57.7645 116.901 57.7765C116.719 57.788 116.537 57.7608 116.366 57.6966C116.195 57.6324 116.04 57.5327 115.91 57.4041C115.781 57.2754 115.68 57.1209 115.615 56.9506C115.55 56.7802 115.522 56.5981 115.532 56.416V55.8791C115.519 55.6982 115.545 55.5166 115.608 55.3466C115.671 55.1765 115.77 55.0218 115.898 54.893C116.025 54.7641 116.179 54.664 116.349 54.5995C116.519 54.5349 116.7 54.5073 116.882 54.5186H118.429V53.6621C118.429 53.2009 118.224 52.8979 117.485 52.8979C116.746 52.8979 116.525 53.168 116.525 53.6259V53.7181C116.525 53.8762 116.476 53.9421 116.341 53.9421H115.823C115.697 53.9421 115.648 53.8762 115.648 53.7181V53.5501ZM117.086 51.1454C117.037 51.2343 116.957 51.3496 116.832 51.3496H116.397C116.268 51.3496 116.232 51.2574 116.298 51.1454L117.027 49.9562C117.106 49.831 117.182 49.7421 117.317 49.7421H117.647C117.776 49.7421 117.861 49.831 117.94 49.9562L118.666 51.1454C118.736 51.2574 118.696 51.3496 118.571 51.3496H118.132C118.006 51.3496 117.94 51.2574 117.881 51.1454L117.492 50.4009L117.086 51.1454ZM118.429 56.3304V55.3422H117.076C116.591 55.3422 116.433 55.5925 116.433 56.0273V56.2546C116.433 56.6928 116.647 56.8838 117.132 56.8838C117.617 56.8627 118.078 56.666 118.429 56.3304V56.3304Z" fill="#602483"/>
<path d="M122.806 52.1468C122.932 52.1468 122.991 52.2028 122.991 52.3477V52.7957C122.991 52.9538 122.932 53.0197 122.806 53.0197H121.817V56.0405C121.817 56.5148 122.071 56.7816 122.806 56.7816H122.991C123.116 56.7816 123.176 56.8508 123.176 57.0089V57.48C123.176 57.6381 123.116 57.6941 122.991 57.6941H122.661C121.292 57.6941 120.886 57.144 120.886 56.1558V53.0362H120.352C120.217 53.0362 120.167 52.9703 120.167 52.8122V52.4202C120.167 52.2752 120.217 52.2192 120.352 52.206L120.827 52.1632H120.886V51.0267C120.886 50.8686 120.946 50.8027 121.071 50.8027H121.642C121.77 50.8027 121.817 50.8686 121.817 51.0267V52.1632L122.806 52.1468Z" fill="#602483"/>
<path d="M125 51.0794C125 51.2244 124.951 51.2903 124.825 51.2903H124.261C124.126 51.2903 124.076 51.2244 124.076 51.0794V50.0714C124.076 49.9133 124.126 49.8474 124.261 49.8474H124.825C124.951 49.8474 125 49.9133 125 50.0714V51.0794ZM125 57.4668C125 57.6249 124.951 57.6941 124.825 57.6941H124.261C124.126 57.6941 124.076 57.6249 124.076 57.4668V52.3477C124.076 52.1896 124.126 52.1237 124.261 52.1237H124.825C124.951 52.1237 125 52.1896 125 52.3477V57.4668Z" fill="#602483"/>
</svg>
